<?xml version="1.0" encoding="UTF-8"?>
<svg version="1.1" xmlns="http://www.w3.org/2000/svg" width="512" height="512">
<path d="M0 0 C0.75078827 0.00182281 1.50157654 0.00364563 2.27511597 0.00552368 C13.22478781 0.05030076 23.61132095 0.50682038 34.25 3.3125 C35.57417385 3.62128635 36.89839408 3.92987388 38.22265625 4.23828125 C61.91173187 10.14441701 82.26913924 23.19740505 100.25 39.3125 C101.04019531 40.01761719 101.83039063 40.72273438 102.64453125 41.44921875 C113.67672246 51.8850753 122.287499 64.90100133 129.25 78.3125 C129.85457031 79.4571875 130.45914062 80.601875 131.08203125 81.78125 C134.71703746 88.93447901 137.33026535 96.23373656 139.5625 103.9375 C139.80500488 104.771604 140.04750977 105.60570801 140.29736328 106.46508789 C143.72479706 118.92374912 144.62730333 131.20853711 144.5625 144.0625 C144.55976578 145.1886824 144.55976578 145.1886824 144.55697632 146.33761597 C144.51219924 157.28728781 144.05567962 167.67382095 141.25 178.3125 C140.94121365 179.63667385 140.63262612 180.96089408 140.32421875 182.28515625 C133.99708158 207.68701667 119.61925246 229.98726835 101.25 248.3125 C100.40308594 249.17101562 99.55617188 250.02953125 98.68359375 250.9140625 C72.32528393 276.26632996 36.64040704 288.80720208 0.5 288.625 C-0.6261824 288.62226578 -0.6261824 288.62226578 -1.77511597 288.61947632 C-12.72478781 288.57469924 -23.11132095 288.11817962 -33.75 285.3125 C-35.07417385 285.00371365 -36.39839408 284.69512612 -37.72265625 284.38671875 C-63.12451667 278.05958158 -85.42476835 263.68175246 -103.75 245.3125 C-104.60851562 244.46558594 -105.46703125 243.61867188 -106.3515625 242.74609375 C-131.70382996 216.38778393 -144.24470208 180.70290704 -144.0625 144.5625 C-144.06067719 143.81171173 -144.05885437 143.06092346 -144.05697632 142.28738403 C-144.01219924 131.33771219 -143.55567962 120.95117905 -140.75 110.3125 C-140.44121365 108.98832615 -140.13262612 107.66410592 -139.82421875 106.33984375 C-133.91808299 82.65076813 -120.86509495 62.29336076 -104.75 44.3125 C-104.04488281 43.52230469 -103.33976562 42.73210937 -102.61328125 41.91796875 C-92.1774247 30.88577754 -79.16149867 22.275001 -65.75 15.3125 C-64.03296875 14.40564453 -64.03296875 14.40564453 -62.28125 13.48046875 C-55.12802099 9.84546254 -47.82876344 7.23223465 -40.125 5 C-39.290896 4.75749512 -38.45679199 4.51499023 -37.59741211 4.26513672 C-25.13875088 0.83770294 -12.85396289 -0.06480333 0 0 Z M-52.75 55.3125 C-53.74773437 55.86808594 -54.74546875 56.42367187 -55.7734375 56.99609375 C-79.64866479 71.25966077 -94.60510268 95.98113369 -101.29394531 122.46630859 C-107.20061896 148.48631551 -101.85328325 174.87501268 -88.8125 197.6875 C-85.529665 202.89114272 -81.69106544 207.59882965 -77.75 212.3125 C-77.25371094 212.96734375 -76.75742188 213.6221875 -76.24609375 214.296875 C-61.13479276 233.39314048 -35.41715024 244.50302922 -11.82885742 247.53515625 C15.05621984 250.35810179 42.15580811 243.18550796 63.5 226.3125 C65.08646344 224.98289255 66.67002773 223.64981441 68.25 222.3125 C68.90226563 221.8175 69.55453125 221.3225 70.2265625 220.8125 C88.69683258 206.21870636 99.98092687 181.14032989 103.25 158.3125 C105.0945915 127.40477925 99.29802232 101.48930823 79.25 77.3125 C78.63253906 76.5596875 78.01507813 75.806875 77.37890625 75.03125 C59.85552959 54.44040097 33.79696348 43.03794032 7.25 40.5625 C-14.40736947 39.3763966 -33.96066918 44.79484194 -52.75 55.3125 Z " fill="#000000" transform="translate(255.75,111.6875)"/>
<path d="M0 0 C5.04279782 2.89493949 8.62163585 8.12589559 10.33203125 13.640625 C11.45875389 19.73235619 10.73858591 25.18437053 7.6875 30.5625 C4.68313198 34.20038518 1.44217721 37.5279988 -1.92602539 40.82788086 C-3.49668429 42.37174087 -5.03882859 43.94051241 -6.58007812 45.51367188 C-12.79011679 51.74552026 -17.73382764 55.9647851 -26.8125 56.9375 C-33.17636039 56.25565782 -38.7815062 54.21935474 -43.3125 49.5625 C-47.00472378 44.45391496 -47.76891458 39.68008949 -47.84375 33.46875 C-46.11297945 24.000417 -39.60523202 18.24612977 -33 11.75 C-32.07509766 10.80962891 -31.15019531 9.86925781 -30.19726562 8.90039062 C-21.5522295 0.30450893 -12.3496493 -5.15751637 0 0 Z " fill="#000000" transform="translate(135.3125,377.4375)"/>
<path d="M0 0 C4.82780486 2.35894493 7.66495258 5.8951586 10.3125 10.5 C11.29552082 13.44906245 11.54228654 15.60098177 11.625 18.6875 C11.68107422 20.03908203 11.68107422 20.03908203 11.73828125 21.41796875 C10.45133891 30.73354218 3.97363647 36.45101169 -2.4375 42.75 C-3.30632812 43.63429687 -4.17515625 44.51859375 -5.0703125 45.4296875 C-10.58805459 50.91429 -15.52549659 55.47960398 -23.375 57.03125 C-30.22791303 56.93864307 -35.32052505 55.59013479 -40.4453125 50.88671875 C-44.60719723 46.35287814 -46.42758316 42.30710184 -47 36.125 C-46.14175128 26.16931489 -40.83095322 20.88242524 -34.01904297 14.23461914 C-32.43925905 12.68922077 -30.8849717 11.12114967 -29.33203125 9.54882812 C-28.32174025 8.54543539 -27.31006587 7.54343322 -26.296875 6.54296875 C-24.9351416 5.19755005 -24.9351416 5.19755005 -23.54589844 3.82495117 C-16.38331138 -2.00092144 -8.62614976 -3.26198941 0 0 Z " fill="#000000" transform="translate(418.6875,95.5)"/>
<path d="M0 0 C3.4869981 2.90188187 6.68206945 6.04515801 9.83813477 9.29614258 C11.31266867 10.81267348 12.8075528 12.30660448 14.30664062 13.79882812 C20.5471184 20.10766825 25.42631144 25.11743311 25.4375 34.4375 C25.26551783 41.01020991 24.25139173 44.67734489 19.57421875 49.45703125 C14.21052353 54.26633937 9.75181159 55.2111911 2.79296875 55.4609375 C-6.17467904 53.98096206 -11.79831249 47.79905942 -17.89306641 41.57348633 C-19.38051319 40.05687873 -20.88597896 38.56003862 -22.39453125 37.06445312 C-28.59903 30.81970067 -32.26679629 26.73575268 -32.375 17.625 C-32.25495302 10.97739868 -31.26601449 7.42197586 -26.609375 2.54296875 C-19.04891296 -4.36092685 -8.77493098 -4.98019345 0 0 Z " fill="#000000" transform="translate(108,97)"/>
<path d="M0 0 C1.47726562 -0.05994141 1.47726562 -0.05994141 2.984375 -0.12109375 C12.32684366 1.4769601 18.76075449 9.49347983 25.125 15.9375 C26.08283066 16.88462321 27.041161 17.83124137 28 18.77734375 C28.90492188 19.68613281 29.80984375 20.59492188 30.7421875 21.53125 C31.56058105 22.35302734 32.37897461 23.17480469 33.22216797 24.02148438 C37.65545997 29.30343209 37.73843286 34.53395363 37.6328125 41.203125 C36.92189949 47.2096145 34.03473971 50.65276029 29.875 54.8125 C24.24299655 58.29897832 19.29296629 58.64498078 12.875 58.1171875 C4.40418814 55.92385229 -1.04392329 49.59694614 -7 43.5625 C-7.8971875 42.67691406 -8.794375 41.79132813 -9.71875 40.87890625 C-10.57984375 40.01394531 -11.4409375 39.14898437 -12.328125 38.2578125 C-13.10575195 37.47680176 -13.88337891 36.69579102 -14.68457031 35.89111328 C-19.66297033 29.97705653 -20.23989071 24.98624875 -20.02734375 17.49609375 C-19.51114772 11.80339665 -17.43625582 8.89534053 -13.3125 5.1875 C-8.99113122 1.5911931 -5.68339961 0.12515258 0 0 Z " fill="#000000" transform="translate(383.75,375.5625)"/>
<path d="M0 0 C4.90318323 3.02795918 7.9548255 6.55706814 10.234375 11.89453125 C10.79382957 14.797506 10.84295211 17.62323743 10.8359375 20.57421875 C10.84450775 21.38641876 10.853078 22.19861877 10.86190796 23.03543091 C10.87333518 24.74477429 10.87443894 26.45421486 10.86572266 28.16357422 C10.8594065 30.75659881 10.90635305 33.34503943 10.95703125 35.9375 C11.07075223 50.90922845 11.07075223 50.90922845 5.81787109 57.34790039 C0.79830598 62.25060544 -2.70457475 63.16899968 -9.640625 63.51953125 C-15.46378848 63.33988046 -19.18680726 62.27309885 -23.8984375 58.890625 C-29.06378574 53.36867322 -30.38459819 48.53935734 -30.3671875 41.21484375 C-30.37575775 40.40264374 -30.384328 39.59044373 -30.39315796 38.75363159 C-30.40458518 37.04428821 -30.40568894 35.33484764 -30.39697266 33.62548828 C-30.3906565 31.03246369 -30.43760305 28.44402307 -30.48828125 25.8515625 C-30.60200223 10.87983405 -30.60200223 10.87983405 -25.34912109 4.44116211 C-18.50067648 -2.24784447 -9.00733726 -3.60039046 0 0 Z " fill="#000000" transform="translate(269.765625,433.10546875)"/>
<path d="M0 0 C0.81220001 -0.00857025 1.62440002 -0.0171405 2.46121216 -0.02597046 C4.17055554 -0.03739768 5.87999611 -0.03850144 7.58935547 -0.02978516 C10.18238006 -0.023469 12.77082068 -0.07041555 15.36328125 -0.12109375 C30.3350097 -0.23481473 30.3350097 -0.23481473 36.77368164 5.01806641 C41.67638669 10.03763152 42.59478093 13.54051225 42.9453125 20.4765625 C42.76566171 26.29972598 41.6988801 30.02274476 38.31640625 34.734375 C32.79445447 39.89972324 27.96513859 41.22053569 20.640625 41.203125 C19.82842499 41.21169525 19.01622498 41.2202655 18.17941284 41.22909546 C16.47006946 41.24052268 14.76062889 41.24162644 13.05126953 41.23291016 C10.45824494 41.226594 7.86980432 41.27354055 5.27734375 41.32421875 C-9.6943847 41.43793973 -9.6943847 41.43793973 -16.13305664 36.18505859 C-21.03576169 31.16549348 -21.95415593 27.66261275 -22.3046875 20.7265625 C-22.12503671 14.90339902 -21.0582551 11.18038024 -17.67578125 6.46875 C-12.15382947 1.30340176 -7.32451359 -0.01741069 0 0 Z " fill="#000000" transform="translate(453.6796875,255.3984375)"/>
<path d="M0 0 C0.81220001 -0.00857025 1.62440002 -0.0171405 2.46121216 -0.02597046 C4.17055554 -0.03739768 5.87999611 -0.03850144 7.58935547 -0.02978516 C10.18238006 -0.023469 12.77082068 -0.07041555 15.36328125 -0.12109375 C30.3350097 -0.23481473 30.3350097 -0.23481473 36.77368164 5.01806641 C41.67638669 10.03763152 42.59478093 13.54051225 42.9453125 20.4765625 C42.76566171 26.29972598 41.6988801 30.02274476 38.31640625 34.734375 C32.79445447 39.89972324 27.96513859 41.22053569 20.640625 41.203125 C19.82842499 41.21169525 19.01622498 41.2202655 18.17941284 41.22909546 C16.47006946 41.24052268 14.76062889 41.24162644 13.05126953 41.23291016 C10.45824494 41.226594 7.86980432 41.27354055 5.27734375 41.32421875 C-9.6943847 41.43793973 -9.6943847 41.43793973 -16.13305664 36.18505859 C-21.03576169 31.16549348 -21.95415593 27.66261275 -22.3046875 20.7265625 C-22.12503671 14.90339902 -21.0582551 11.18038024 -17.67578125 6.46875 C-12.15382947 1.30340176 -7.32451359 -0.01741069 0 0 Z " fill="#000000" transform="translate(37.6796875,255.3984375)"/>
<path d="M0 0 C4.90318323 3.02795918 7.9548255 6.55706814 10.234375 11.89453125 C10.79382957 14.797506 10.84295211 17.62323743 10.8359375 20.57421875 C10.84450775 21.38641876 10.853078 22.19861877 10.86190796 23.03543091 C10.87333518 24.74477429 10.87443894 26.45421486 10.86572266 28.16357422 C10.8594065 30.75659881 10.90635305 33.34503943 10.95703125 35.9375 C11.07075223 50.90922845 11.07075223 50.90922845 5.81787109 57.34790039 C0.79830598 62.25060544 -2.70457475 63.16899968 -9.640625 63.51953125 C-15.46378848 63.33988046 -19.18680726 62.27309885 -23.8984375 58.890625 C-29.06378574 53.36867322 -30.38459819 48.53935734 -30.3671875 41.21484375 C-30.37575775 40.40264374 -30.384328 39.59044373 -30.39315796 38.75363159 C-30.40458518 37.04428821 -30.40568894 35.33484764 -30.39697266 33.62548828 C-30.3906565 31.03246369 -30.43760305 28.44402307 -30.48828125 25.8515625 C-30.60200223 10.87983405 -30.60200223 10.87983405 -25.34912109 4.44116211 C-18.50067648 -2.24784447 -9.00733726 -3.60039046 0 0 Z " fill="#000000" transform="translate(269.765625,17.10546875)"/>
</svg>
